# Blender v2.66 (sub 1) OBJ File: 'SplittedArm.blend'
# www.blender.org
v 0.103559 0.141048 0.182364
v -0.019795 0.151654 0.205667
v -0.047682 0.022329 0.239387
v 0.086787 0.052242 0.212408
v 0.205623 0.102864 0.176231
v 0.193097 0.137986 0.159418
v 0.351454 0.114112 0.125140
v 0.253238 0.160646 0.105530
v 0.433242 0.146451 0.012507
v 0.300336 0.179232 0.012483
v 0.409391 0.120043 -0.124460
v 0.291330 0.164989 -0.082278
v 0.166394 0.151369 -0.151410
v 0.214063 0.093481 -0.183578
v 0.077064 0.070782 -0.227080
v 0.040309 0.160699 -0.200606
v 0.169564 0.199787 -0.088051
v 0.176054 0.222095 0.012272
v 0.139127 0.195492 0.116535
v 0.010613 0.281450 0.011189
v 0.000074 0.243458 0.157287
v 0.021008 0.244036 -0.122712
v 0.291404 0.120144 -0.146407
v 0.250569 0.146064 -0.127116
v 0.627624 0.145521 0.016254
v 0.621408 0.107333 -0.112192
v 0.783203 0.136997 0.015115
v 0.782098 0.098641 -0.101053
v 0.922545 0.119479 0.013966
v 0.920582 0.086061 -0.099220
v 1.080099 0.085630 0.013551
v 1.075790 0.066782 -0.101228
v 0.572246 0.106068 0.120111
v 0.762598 0.090666 0.120306
v 0.912797 0.077485 0.120475
v 1.078925 0.050444 0.114852
v 0.298441 0.023168 0.202031
v 0.561093 0.011140 0.200773
v 0.756981 0.005063 0.196810
v 0.910227 -0.004451 0.190818
v 1.079004 -0.022840 0.161329
v 0.609314 0.025994 -0.203970
v 0.335527 0.031273 -0.202097
v 0.774815 0.017894 -0.201160
v 0.910384 0.005429 -0.186243
v 1.054026 -0.014523 -0.186578
v 0.381502 -0.172426 -0.225882
v 0.609836 -0.163349 -0.221319
v 0.601944 -0.234689 -0.159697
v 0.360899 -0.251815 -0.171848
v 0.774231 -0.161151 -0.225720
v 0.774509 -0.223809 -0.157924
v 0.906765 -0.158065 -0.209539
v 0.910661 -0.209670 -0.146685
v 1.046670 -0.166343 -0.201598
v 1.052152 -0.207640 -0.134633
v 0.919190 -0.108800 0.189673
v 1.088223 -0.114823 0.164361
v 0.931141 -0.204185 0.152286
v 1.099137 -0.184508 0.126694
v 0.765506 -0.108195 0.203064
v 0.778152 -0.224399 0.160549
v 0.573264 -0.110750 0.216848
v 0.586548 -0.235165 0.169719
v 0.307947 -0.111271 0.230163
v 0.326919 -0.245476 0.161982
v 1.044267 -0.089711 -0.218001
v 0.903356 -0.077504 -0.218315
v 0.772764 -0.070461 -0.236041
v 0.613501 -0.068638 -0.233990
v 0.397100 -0.074181 -0.234226
v 0.067813 -0.113080 0.224215
v 0.067727 -0.217806 0.143779
v -0.075481 -0.101269 0.195028
v -0.080158 -0.182372 0.135799
v 0.932206 -0.228638 0.050826
v 1.093306 -0.216765 0.044776
v 0.921467 -0.225509 -0.055594
v 1.068888 -0.216872 -0.043065
v 0.779297 -0.256057 0.048871
v 0.775535 -0.251330 -0.061115
v 0.596140 -0.279042 0.050166
v 0.597263 -0.271465 -0.063717
v 0.352663 -0.294621 0.043463
v 0.353091 -0.288412 -0.075123
v 0.084049 -0.178760 -0.211786
v 0.109586 -0.097894 -0.234408
v 0.068844 -0.234530 -0.165499
v 0.067691 -0.256111 0.034457
v 0.067756 -0.268725 -0.097817
v 0.118476 -0.013148 -0.230934
v -0.069850 -0.212622 0.019173
v 0.006008 -0.139182 -0.218855
v -0.055387 -0.234023 -0.076823
v -0.040432 -0.225523 -0.153522
v 0.003526 -0.184350 -0.195489
v 1.152331 0.067765 0.009281
v 1.155654 0.051800 -0.095662
v 1.151344 0.036002 0.100772
v 1.152961 -0.030261 0.144864
v 1.160438 -0.030748 -0.187375
v 1.179447 -0.182944 -0.195821
v 1.171367 -0.216081 -0.120766
v 1.158370 -0.110190 0.152016
v 1.149545 -0.172179 0.117469
v 1.169337 -0.101006 -0.220189
v 1.151077 -0.206776 0.038734
v 1.162308 -0.217695 -0.031010
vn 0.243202 0.452132 0.858119
vn 0.184149 0.324198 0.927854
vn 0.136967 0.202277 0.969695
vn 0.318217 0.231574 0.919279
vn 0.310862 0.598285 0.738487
vn 0.297830 0.810022 0.505112
vn 0.146825 0.773614 0.616382
vn 0.293435 0.950407 0.102969
vn 0.122745 0.990020 0.068789
vn 0.245338 0.897580 -0.366192
vn 0.267312 0.654256 -0.707419
vn 0.153661 0.507736 -0.847652
vn 0.287606 0.341227 -0.894864
vn 0.324198 0.943815 0.063845
vn 0.325694 0.801050 0.502182
vn 0.354503 0.933988 0.044374
vn 0.306253 0.861721 -0.404462
vn 0.351085 0.714896 0.604663
vn 0.121769 0.837947 -0.531968
vn 0.142216 0.719321 -0.679952
vn 0.215369 0.746025 -0.630085
vn 0.336039 0.563921 -0.754326
vn 0.334239 0.837519 -0.432173
vn 0.041963 0.997864 0.049989
vn 0.063662 0.876827 -0.476485
vn 0.084902 0.995209 0.048372
vn 0.091556 0.874111 -0.476943
vn 0.157750 0.986694 0.039216
vn 0.213324 0.974273 0.072512
vn 0.110111 0.867580 -0.484939
vn 0.039064 0.818415 0.573290
vn 0.063662 0.804895 0.589984
vn 0.116489 0.803705 0.583453
vn 0.226112 0.761559 0.607349
vn 0.035920 0.408155 0.912168
vn 0.054323 0.386944 0.920469
vn 0.119602 0.340098 0.932737
vn 0.035188 0.534043 -0.844691
vn 0.090823 0.575274 -0.812860
vn 0.099643 0.565477 -0.818690
vn 0.153935 0.877041 -0.455031
vn 0.079470 0.561480 -0.823634
vn 0.003815 -0.345042 -0.938566
vn 0.004883 -0.405988 -0.913846
vn 0.063204 -0.824610 -0.562120
vn 0.061739 -0.436384 -0.897610
vn 0.090243 -0.470382 -0.877804
vn 0.089022 -0.868862 -0.486923
vn -0.030885 -0.572710 -0.819147
vn -0.011811 -0.944456 -0.328349
vn 0.052065 0.425703 -0.903348
vn 0.069216 0.417066 0.906217
vn 0.119633 -0.169897 0.978149
vn 0.212073 0.293161 0.932218
vn 0.148228 -0.737388 0.658956
vn 0.186773 -0.201483 0.961486
vn 0.070254 -0.147038 0.986602
vn 0.114689 -0.727195 0.676748
vn 0.053041 -0.117252 0.991668
vn 0.057344 -0.705222 0.706626
vn 0.011841 -0.140385 0.990020
vn -0.045900 -0.751091 0.658589
vn 0.006378 0.094638 -0.995483
vn 0.088839 0.126011 -0.988037
vn 0.061159 0.130345 -0.989563
vn 0.001679 0.094852 -0.995483
vn -0.007996 0.094790 -0.995453
vn -0.087008 -0.320688 0.943144
vn -0.178320 -0.798364 0.575091
vn -0.205023 -0.455824 0.866115
vn 0.053316 0.009308 0.998505
vn 0.130650 -0.984649 0.115482
vn 0.224860 -0.735984 0.638508
vn 0.114597 -0.987610 -0.107150
vn 0.022126 -0.998566 -0.048402
vn 0.101901 -0.895321 -0.433546
vn 0.149144 -0.982421 0.112156
vn 0.129917 -0.978118 -0.162389
vn 0.081759 -0.986633 0.140812
vn 0.094058 -0.973632 -0.207678
vn -0.022492 -0.985626 0.167241
vn 0.006104 -0.978454 -0.206305
vn 0.009980 -0.787164 -0.616627
vn -0.054537 -0.460036 -0.886196
vn -0.116245 -0.785150 -0.608234
vn -0.189734 -0.960723 -0.202368
vn 0.028382 -0.147343 -0.988647
vn 0.160894 0.136692 -0.977447
vn -0.241340 -0.779473 0.578021
vn -0.213752 -0.956206 0.199866
vn -0.223395 -0.974700 0.006043
vn -0.111454 -0.925748 -0.361248
vn -0.122379 -0.581591 -0.804193
vn -0.103183 -0.368480 -0.923856
vn -0.297494 -0.938749 0.173833
vn 0.235969 0.968749 0.076083
vn 0.259957 0.762841 0.591998
vn 0.176458 0.879482 -0.441939
vn -0.021638 -0.669240 -0.742698
vn 0.222816 0.308786 0.924650
vn 0.251900 -0.710471 0.657063
vn 0.067354 0.567522 -0.820582
vn 0.005737 0.041231 -0.999115
vn 0.115513 -0.971191 0.208319
vn 0.029756 -0.999176 0.026795
vn -0.025483 -0.972869 -0.229926
vn 0.182562 -0.198614 0.962889
vn 0.192022 -0.939879 0.282296
s 1
f 1//1 2//2 4//3
f 1//1 4//3 5//4
f 6//5 5//4 8//6
f 8//6 7//7 10//8
f 10//8 9//9 12//10
f 13//11 14//12 15//13
f 10//8 12//10 18//14
f 8//6 10//8 18//14
f 19//15 18//14 20//16
f 18//14 17//17 20//16
f 1//1 19//15 21//18
f 1//1 6//5 19//15
f 11//19 23//20 12//10
f 23//20 14//12 24//21
f 13//11 16//22 22//23
f 12//10 24//21 17//17
f 9//9 25//24 26//25
f 25//24 27//26 28//27
f 27//26 29//28 28//27
f 29//28 31//29 30//30
f 7//7 33//31 9//9
f 33//31 34//32 25//24
f 34//32 35//33 27//26
f 35//33 36//34 29//28
f 33//31 7//7 38//35
f 34//32 33//31 39//36
f 35//33 34//32 39//36
f 36//34 35//33 40//37
f 11//19 26//25 42//38
f 26//25 28//27 44//39
f 28//27 30//30 45//40
f 30//30 32//41 46//42
f 47//43 48//44 49//45
f 48//44 51//46 49//45
f 51//46 53//47 52//48
f 53//47 55//49 56//50
f 11//19 43//51 14//12
f 4//3 37//52 7//7
f 40//37 57//53 41//54
f 57//53 59//55 58//56
f 39//36 61//57 40//37
f 61//57 62//58 57//53
f 38//35 63//59 39//36
f 63//59 64//60 61//57
f 37//52 65//61 38//35
f 65//61 66//62 64//60
f 46//42 67//63 68//64
f 67//63 55//49 68//64
f 45//40 68//64 44//39
f 68//64 53//47 51//46
f 44//39 69//65 70//66
f 69//65 51//46 48//44
f 42//38 70//66 43//51
f 70//66 48//44 71//67
f 66//62 65//61 72//68
f 73//69 72//68 74//70
f 4//3 72//68 65//61
f 4//3 3//71 72//68
f 59//55 76//72 60//73
f 76//72 78//74 79//75
f 78//74 54//76 56//50
f 62//58 80//77 76//72
f 80//77 81//78 78//74
f 81//78 52//48 54//76
f 64//60 82//79 62//58
f 82//79 83//80 81//78
f 83//80 49//45 81//78
f 66//62 84//81 64//60
f 84//81 85//82 83//80
f 85//82 50//83 83//80
f 71//67 47//43 86//84
f 47//43 50//83 88//85
f 85//82 84//81 90//86
f 50//83 85//82 88//85
f 43//51 71//67 87//87
f 14//12 43//51 91//88
f 66//62 73//69 84//81
f 73//69 75//89 89//90
f 88//85 90//86 94//91
f 86//84 88//85 95//92
f 86//84 96//93 93//94
f 89//90 92//95 90//86
f 32//41 31//29 97//96
f 31//29 36//34 99//97
f 36//34 41//54 99//97
f 46//42 32//41 98//98
f 56//50 55//49 102//99
f 41//54 58//56 100//100
f 58//56 60//73 105//101
f 67//63 46//42 101//102
f 55//49 67//63 106//103
f 60//73 77//104 105//101
f 77//104 79//75 108//105
f 79//75 56//50 103//106
f 2//2 3//71 4//3
f 6//5 1//1 5//4
f 5//4 7//7 8//6
f 7//7 9//9 10//8
f 9//9 11//19 12//10
f 16//22 13//11 15//13
f 12//10 17//17 18//14
f 19//15 8//6 18//14
f 21//18 19//15 20//16
f 17//17 22//23 20//16
f 2//2 1//1 21//18
f 6//5 8//6 19//15
f 23//20 24//21 12//10
f 14//12 13//11 24//21
f 17//17 13//11 22//23
f 24//21 13//11 17//17
f 11//19 9//9 26//25
f 26//25 25//24 28//27
f 29//28 30//30 28//27
f 31//29 32//41 30//30
f 33//31 25//24 9//9
f 34//32 27//26 25//24
f 35//33 29//28 27//26
f 36//34 31//29 29//28
f 7//7 37//52 38//35
f 33//31 38//35 39//36
f 40//37 35//33 39//36
f 41//54 36//34 40//37
f 43//51 11//19 42//38
f 42//38 26//25 44//39
f 44//39 28//27 45//40
f 45//40 30//30 46//42
f 50//83 47//43 49//45
f 51//46 52//48 49//45
f 53//47 54//76 52//48
f 54//76 53//47 56//50
f 23//20 11//19 14//12
f 5//4 4//3 7//7
f 57//53 58//56 41//54
f 59//55 60//73 58//56
f 61//57 57//53 40//37
f 62//58 59//55 57//53
f 63//59 61//57 39//36
f 64//60 62//58 61//57
f 65//61 63//59 38//35
f 63//59 65//61 64//60
f 45//40 46//42 68//64
f 55//49 53//47 68//64
f 68//64 69//65 44//39
f 69//65 68//64 51//46
f 42//38 44//39 70//66
f 70//66 69//65 48//44
f 70//66 71//67 43//51
f 48//44 47//43 71//67
f 73//69 66//62 72//68
f 75//89 73//69 74//70
f 37//52 4//3 65//61
f 3//71 74//70 72//68
f 76//72 77//104 60//73
f 77//104 76//72 79//75
f 79//75 78//74 56//50
f 59//55 62//58 76//72
f 76//72 80//77 78//74
f 78//74 81//78 54//76
f 82//79 80//77 62//58
f 80//77 82//79 81//78
f 49//45 52//48 81//78
f 84//81 82//79 64//60
f 82//79 84//81 83//80
f 50//83 49//45 83//80
f 87//87 71//67 86//84
f 86//84 47//43 88//85
f 84//81 89//90 90//86
f 85//82 90//86 88//85
f 91//88 43//51 87//87
f 15//13 14//12 91//88
f 73//69 89//90 84//81
f 75//89 92//95 89//90
f 95//92 88//85 94//91
f 96//93 86//84 95//92
f 87//87 86//84 93//94
f 92//95 94//91 90//86
f 98//98 32//41 97//96
f 97//96 31//29 99//97
f 41//54 100//100 99//97
f 101//102 46//42 98//98
f 103//106 56//50 102//99
f 58//56 104//107 100//100
f 104//107 58//56 105//101
f 106//103 67//63 101//102
f 102//99 55//49 106//103
f 77//104 107//108 105//101
f 107//108 77//104 108//105
f 108//105 79//75 103//106
