# Blender v2.71 (sub 0) OBJ File: ''
# www.blender.org
o forearm
v 0.955039 0.115083 -0.047428
v 0.810078 0.133518 -0.048075
v 0.953546 0.124218 0.008783
v 0.808185 0.148227 0.016316
v 0.951883 0.109518 0.082235
v 0.805813 0.127701 0.093750
v 0.950034 0.056340 0.145976
v 0.957877 -0.018588 -0.160857
v 0.811659 -0.038506 -0.157794
v 0.958639 0.040263 -0.147947
v 0.939667 -0.074156 -0.027569
v 0.803440 -0.115165 -0.008184
v 0.806687 -0.101909 -0.082099
v 0.948486 -0.064624 -0.098515
v 0.809378 -0.078612 -0.127991
v 0.936843 -0.074506 0.029191
v 0.801964 -0.111357 0.049770
v 0.937992 -0.070580 0.100114
v 0.801576 -0.095940 0.117013
v 0.943839 -0.060708 0.155184
v 0.802876 -0.065960 0.170710
v 0.947396 0.004600 0.163396
v 0.802553 0.004934 0.179459
v 0.804135 0.068940 0.158465
v 0.954264 -0.049775 -0.138188
v 0.811382 0.092824 -0.105058
v 0.956792 0.087371 -0.101386
v 0.636866 0.160052 -0.057416
v 0.640601 0.177123 0.018574
v 0.640680 0.151951 0.103604
v 0.640732 0.085376 0.172072
v 0.628290 -0.049456 -0.176029
v 0.629946 0.033316 -0.172396
v 0.627118 -0.151834 -0.004673
v 0.626648 -0.134196 -0.088277
v 0.627404 -0.101242 -0.140355
v 0.628261 -0.144315 0.063441
v 0.630753 -0.119768 0.134555
v 0.634631 -0.074491 0.188077
v 0.641447 0.006677 0.181680
v 0.633568 0.107925 -0.122282
v 0.812427 0.030516 -0.151406
v 1.121576 0.094668 -0.044772
v 1.120882 0.102311 0.002518
v 1.122080 0.092777 0.069073
v 1.126492 0.049459 0.128823
v 1.124445 -0.013555 -0.140378
v 1.124492 -0.056228 -0.049557
v 1.121024 -0.049490 -0.097646
v 1.137317 -0.054300 -0.003449
v 1.131569 -0.054085 0.106068
v 1.125993 -0.051318 0.146835
v 1.124618 0.008282 0.146790
v 1.123284 -0.038698 -0.125143
v 1.123698 0.073035 -0.089462
v 1.124915 0.035096 -0.127786
v 0.314526 0.014115 -0.190567
v 0.291758 -0.068418 -0.192364
v 0.205957 -0.000817 -0.205892
v 0.198201 -0.050709 -0.208670
v 0.141016 -0.070224 -0.194927
v 0.318375 0.074027 -0.159702
v 0.266307 -0.128038 -0.155617
v 0.234232 0.182499 0.098616
v 0.281283 0.182402 -0.007114
v 0.148407 0.185897 -0.011763
v 0.176861 -0.117724 0.174822
v 0.242315 0.008096 0.179600
v 0.058439 -0.107960 0.161550
v 0.241337 0.110943 0.170872
v 0.143622 0.011623 0.165039
v 0.138372 0.113781 0.171269
v 0.147073 -0.176376 0.125779
v 0.022795 -0.154747 0.125386
v 0.158441 -0.194942 0.062784
v 0.220173 -0.181967 -0.042186
v 0.028807 -0.169946 0.062706
v 0.239964 -0.162310 -0.098278
v 0.091783 -0.164329 -0.033676
v 0.299802 0.145668 -0.097100
v 0.173543 0.133492 -0.109676
v 0.123464 -0.150655 -0.102692
v 0.160095 0.029479 -0.187641
v 0.067563 0.032517 -0.177976
v 0.059588 -0.136507 -0.103926
v 0.071468 0.177460 -0.007076
v 0.028732 -0.145469 -0.033966
v -0.020982 -0.147954 0.062656
v -0.026646 -0.131933 0.125248
v 0.119356 0.187897 0.098728
v 0.059545 0.181614 0.099000
v 0.086623 0.014402 0.169492
v 0.065772 -0.058510 -0.186543
v 0.531448 0.159795 -0.070038
v 0.526155 0.185477 0.011334
v 0.420129 0.151345 -0.083539
v 0.407342 0.182236 0.002081
v 0.516182 0.166262 0.101734
v 0.381058 0.171969 0.099448
v 0.516245 0.097693 0.170721
v 0.382798 0.102123 0.169756
v 0.526936 -0.057566 -0.181124
v 0.533713 0.027144 -0.178382
v 0.415277 -0.067128 -0.186631
v 0.429393 0.017936 -0.184440
v 0.502587 -0.163428 -0.015662
v 0.510470 -0.145049 -0.091460
v 0.365287 -0.181198 -0.028709
v 0.380895 -0.160543 -0.094869
v 0.519165 -0.113029 -0.145046
v 0.398781 -0.124918 -0.150187
v 0.486371 -0.162363 0.063079
v 0.326378 -0.185857 0.062819
v 0.483729 -0.137575 0.133167
v 0.318537 -0.163239 0.129785
v 0.495089 -0.085101 0.186674
v 0.339859 -0.107525 0.184862
v 0.513466 0.010183 0.172462
v 0.378396 0.006181 0.172588
v 0.535165 0.099273 -0.134609
v 0.430860 0.085869 -0.147122
v -0.089972 -0.032599 0.184776
v -0.040412 -0.019771 0.177703
v -0.095381 0.047330 0.177624
v -0.045262 0.058471 0.166155
v -0.098797 -0.094589 0.150229
v -0.067122 -0.088302 0.149818
v 0.008991 -0.091804 0.179105
v -0.097265 -0.129185 0.071494
v -0.075622 -0.122539 0.082355
v -0.096998 0.113592 0.133532
v 0.082121 0.111375 0.171161
v -0.052389 0.122790 0.117141
v -0.048535 0.142967 0.027115
v -0.096011 0.145355 0.042041
v -0.044328 0.119721 -0.069120
v 0.078826 0.130907 -0.102471
v -0.092688 0.129391 -0.062902
v -0.087904 0.046843 -0.154615
v -0.044116 0.039412 -0.151119
v -0.079005 -0.023415 -0.187429
v -0.038598 -0.032028 -0.175523
v -0.068895 -0.105354 -0.163061
v -0.033440 -0.107317 -0.137005
v -0.076975 -0.138490 -0.088006
v -0.047137 -0.132086 -0.067714
v -0.086034 -0.140105 0.001750
v -0.066538 -0.134209 0.018614
vn 0.107200 0.941700 -0.318900
vn 0.144000 0.906200 -0.397400
vn 0.137000 0.990500 0.012300
vn 0.160600 0.986800 0.019000
vn 0.133200 0.892200 0.431500
vn 0.145700 0.865700 0.478800
vn 0.109500 0.554800 0.824700
vn 0.059800 -0.188700 -0.980200
vn 0.079000 -0.278800 -0.957100
vn 0.057000 0.464600 -0.883700
vn 0.182600 -0.981400 -0.058200
vn 0.233200 -0.971200 -0.049100
vn 0.195400 -0.934500 -0.297400
vn 0.142200 -0.961200 -0.236300
vn 0.132200 -0.770400 -0.623700
vn 0.189300 -0.981500 0.028200
vn 0.223600 -0.965200 0.135500
vn 0.156700 -0.980700 0.116400
vn 0.156700 -0.922500 0.352800
vn 0.126300 -0.681200 0.721100
vn 0.093100 -0.542500 0.834900
vn 0.091700 0.099500 0.990800
vn 0.062300 0.094400 0.993600
vn 0.102000 0.526400 0.844100
vn 0.102600 -0.787500 -0.607700
vn 0.092200 0.722100 -0.685600
vn 0.078600 0.805800 -0.586900
vn 0.109600 0.895300 -0.431800
vn 0.127000 0.991500 0.026700
vn 0.120800 0.854100 0.505900
vn 0.064900 0.432000 0.899500
vn 0.094500 -0.275800 -0.956500
vn 0.077600 0.311600 -0.947000
vn 0.144600 -0.988300 -0.047700
vn 0.142500 -0.919600 -0.365900
vn 0.125700 -0.717500 -0.685100
vn 0.144500 -0.967900 0.205500
vn 0.126700 -0.859500 0.495100
vn 0.079100 -0.387000 0.918700
vn 0.014300 0.105000 0.994400
vn 0.085700 0.672200 -0.735400
vn 0.060900 0.349800 -0.934800
vn 0.117100 0.945900 -0.302700
vn 0.129400 0.991500 -0.012600
vn 0.129300 0.917700 0.375600
vn 0.113400 0.617900 0.778000
vn 0.130800 -0.141900 -0.981200
vn 0.092500 -0.993900 -0.060400
vn 0.088000 -0.963600 -0.252300
vn 0.100000 -0.994900 0.009400
vn 0.079300 -0.995400 0.053900
vn 0.092500 -0.715600 0.692400
vn 0.098600 0.200500 0.974700
vn 0.108700 -0.762700 -0.637600
vn 0.110700 0.812000 -0.573000
vn 0.121200 0.498300 -0.858500
vn 0.068200 0.243000 -0.967600
vn 0.076900 -0.299400 -0.951000
vn -0.038600 0.239300 -0.970200
vn -0.039800 -0.203800 -0.978200
vn -0.148500 -0.394600 -0.906700
vn 0.015000 0.576000 -0.817300
vn -0.027200 -0.729300 -0.683600
vn 0.046200 0.921800 0.384800
vn 0.017600 0.982700 -0.184400
vn -0.040100 0.964200 -0.262200
vn -0.074000 -0.335300 0.939200
vn -0.054800 0.055700 0.996900
vn -0.020900 -0.382000 0.923900
vn 0.003700 0.410000 0.912000
vn -0.038500 0.001600 0.999200
vn 0.005000 0.368500 0.929600
vn -0.066400 -0.841000 0.536900
vn -0.270900 -0.792400 0.546400
vn -0.075400 -0.996000 0.046900
vn -0.053400 -0.969100 -0.240900
vn -0.308700 -0.950600 -0.032300
vn -0.052700 -0.892500 -0.447900
vn -0.206500 -0.950300 -0.232700
vn -0.005100 0.808900 -0.587900
vn -0.028100 0.760800 -0.648400
vn -0.127000 -0.876400 -0.464400
vn -0.097400 0.405200 -0.909000
vn -0.155600 0.374100 -0.914200
vn -0.183000 -0.866600 -0.464200
vn -0.238800 0.937400 -0.253300
vn -0.204600 -0.959300 -0.194600
vn -0.367000 -0.928600 0.053700
vn -0.483900 -0.680600 0.550000
vn -0.035400 0.928700 0.369100
vn -0.267300 0.903800 0.334000
vn 0.039800 -0.037900 0.998500
vn -0.191000 -0.330700 -0.924200
vn 0.022900 0.866400 -0.498800
vn 0.030600 0.998400 -0.047400
vn 0.005700 0.837000 -0.547100
vn -0.008900 0.992800 -0.119500
vn 0.052100 0.875100 0.481200
vn 0.025900 0.903500 0.427700
vn 0.021200 0.401700 0.915500
vn 0.025900 0.400600 0.915900
vn 0.073900 -0.276900 -0.958000
vn 0.039500 0.281500 -0.958700
vn 0.062700 -0.284200 -0.956700
vn 0.040400 0.251400 -0.967000
vn 0.120700 -0.988500 -0.090600
vn 0.108700 -0.924800 -0.364500
vn 0.084400 -0.985600 -0.146200
vn 0.079200 -0.914600 -0.396400
vn 0.100000 -0.723300 -0.683300
vn 0.075500 -0.718200 -0.691700
vn 0.129900 -0.973800 0.186600
vn 0.085300 -0.985300 0.148100
vn 0.110300 -0.845100 0.523100
vn 0.080100 -0.849200 0.521800
vn 0.023100 -0.320800 0.946800
vn 0.035300 -0.356700 0.933500
vn -0.030200 0.092300 0.995300
vn 0.022100 0.064200 0.997700
vn 0.027000 0.631000 -0.775300
vn 0.017300 0.597500 -0.801700
vn 0.175100 -0.230600 0.957200
vn 0.149600 -0.160600 0.975600
vn 0.124700 0.321000 0.938800
vn 0.020300 0.363900 0.931200
vn 0.145900 -0.749800 0.645300
vn 0.005200 -0.665400 0.746500
vn -0.152100 -0.284400 0.946500
vn 0.146500 -0.950800 0.272800
vn -0.091700 -0.942800 0.320300
vn 0.072300 0.777400 0.624800
vn -0.100100 0.393600 0.913800
vn -0.138000 0.847600 0.512400
vn -0.115800 0.993000 -0.021300
vn 0.109700 0.987000 0.117200
vn -0.039700 0.877300 -0.478200
vn -0.165200 0.772600 -0.612900
vn 0.133700 0.914400 -0.382200
vn 0.148300 0.598200 -0.787500
vn 0.039600 0.540800 -0.840200
vn 0.264800 0.120900 -0.956700
vn 0.159700 -0.049300 -0.985900
vn 0.404100 -0.577200 -0.709600
vn 0.230400 -0.738200 -0.634000
vn 0.285300 -0.940500 -0.184400
vn 0.100900 -0.980700 -0.167300
vn 0.217600 -0.973100 0.075600
vn -0.037000 -0.996800 0.070400
s 1
f 1//1 2//2 3//3
f 3//3 4//4 5//5
f 5//5 6//6 7//7
f 8//8 9//9 10//10
f 11//11 12//12 13//13
f 14//14 13//13 15//15
f 16//16 17//17 12//12
f 18//18 19//19 17//17
f 20//20 21//21 19//19
f 22//22 23//23 20//20
f 7//7 24//24 22//22
f 25//25 15//15 9//9
f 2//2 1//1 26//26
f 26//26 27//27 10//10
f 2//2 28//28 4//4
f 4//4 29//29 6//6
f 6//6 30//30 31//31
f 9//9 32//32 33//33
f 12//12 34//34 35//35
f 13//13 35//35 36//36
f 17//17 37//37 34//34
f 19//19 38//38 37//37
f 21//21 39//39 19//19
f 23//23 40//40 21//21
f 24//24 31//31 40//40
f 15//15 36//36 32//32
f 28//28 2//2 26//26
f 41//41 26//26 42//42
f 43//43 1//1 44//44
f 44//44 3//3 45//45
f 45//45 5//5 46//46
f 47//47 8//8 10//10
f 48//48 11//11 14//14
f 49//49 14//14 25//25
f 50//50 16//16 11//11
f 51//51 18//18 16//16
f 52//52 20//20 51//51
f 53//53 22//22 52//52
f 46//46 7//7 53//53
f 54//54 25//25 8//8
f 1//1 43//43 27//27
f 27//27 55//55 56//56
f 57//57 58//58 59//59
f 59//59 60//60 61//61
f 57//57 59//59 62//62
f 63//63 61//61 60//60
f 64//64 65//65 66//66
f 67//67 68//68 69//69
f 68//68 70//70 71//71
f 70//70 64//64 72//72
f 73//73 67//67 74//74
f 75//75 73//73 74//74
f 76//76 75//75 77//77
f 78//78 76//76 79//79
f 65//65 80//80 81//81
f 78//78 82//82 61//61
f 80//80 62//62 83//83
f 81//81 83//83 84//84
f 61//61 82//82 85//85
f 66//66 81//81 86//86
f 82//82 79//79 87//87
f 79//79 77//77 88//88
f 77//77 74//74 89//89
f 74//74 69//69 89//89
f 72//72 90//90 91//91
f 71//71 72//72 92//92
f 69//69 71//71 92//92
f 90//90 66//66 91//91
f 83//83 61//61 93//93
f 28//28 94//94 95//95
f 94//94 96//96 97//97
f 96//96 80//80 65//65
f 29//29 95//95 98//98
f 95//95 97//97 99//99
f 97//97 65//65 99//99
f 30//30 98//98 100//100
f 98//98 99//99 101//101
f 99//99 64//64 70//70
f 32//32 102//102 103//103
f 102//102 104//104 105//105
f 104//104 58//58 57//57
f 34//34 106//106 107//107
f 106//106 108//108 109//109
f 108//108 76//76 78//78
f 35//35 107//107 110//110
f 107//107 109//109 111//111
f 109//109 78//78 63//63
f 37//37 112//112 106//106
f 112//112 113//113 108//108
f 113//113 75//75 76//76
f 38//38 114//114 37//37
f 114//114 115//115 113//113
f 115//115 73//73 75//75
f 39//39 116//116 38//38
f 116//116 117//117 114//114
f 117//117 67//67 73//73
f 40//40 118//118 116//116
f 118//118 119//119 117//117
f 119//119 68//68 117//117
f 31//31 100//100 118//118
f 100//100 101//101 119//119
f 101//101 70//70 68//68
f 36//36 110//110 102//102
f 110//110 111//111 104//104
f 111//111 63//63 58//58
f 80//80 96//96 62//62
f 96//96 94//94 120//120
f 94//94 28//28 41//41
f 62//62 121//121 105//105
f 121//121 120//120 103//103
f 120//120 41//41 33//33
f 122//122 123//123 124//124
f 123//123 92//92 125//125
f 126//126 127//127 122//122
f 127//127 128//128 92//92
f 129//129 130//130 126//126
f 130//130 89//89 128//128
f 124//124 125//125 131//131
f 125//125 132//132 91//91
f 131//131 133//133 134//134
f 133//133 91//91 86//86
f 135//135 134//134 136//136
f 134//134 86//86 137//137
f 138//138 136//136 139//139
f 136//136 137//137 84//84
f 139//139 140//140 141//141
f 140//140 84//84 93//93
f 141//141 142//142 143//143
f 142//142 93//93 85//85
f 143//143 144//144 145//145
f 144//144 85//85 87//87
f 145//145 146//146 147//147
f 146//146 87//87 88//88
f 147//147 148//148 129//129
f 148//148 88//88 89//89
f 2//2 4//4 3//3
f 4//4 6//6 5//5
f 6//6 24//24 7//7
f 9//9 42//42 10//10
f 14//14 11//11 13//13
f 25//25 14//14 15//15
f 11//11 16//16 12//12
f 16//16 18//18 17//17
f 18//18 20//20 19//19
f 23//23 21//21 20//20
f 24//24 23//23 22//22
f 8//8 25//25 9//9
f 1//1 27//27 26//26
f 42//42 26//26 10//10
f 28//28 29//29 4//4
f 29//29 30//30 6//6
f 24//24 6//6 31//31
f 42//42 9//9 33//33
f 13//13 12//12 35//35
f 15//15 13//13 36//36
f 12//12 17//17 34//34
f 17//17 19//19 37//37
f 39//39 38//38 19//19
f 40//40 39//39 21//21
f 23//23 24//24 40//40
f 9//9 15//15 32//32
f 41//41 28//28 26//26
f 33//33 41//41 42//42
f 1//1 3//3 44//44
f 3//3 5//5 45//45
f 5//5 7//7 46//46
f 56//56 47//47 10//10
f 49//49 48//48 14//14
f 54//54 49//49 25//25
f 48//48 50//50 11//11
f 50//50 51//51 16//16
f 20//20 18//18 51//51
f 22//22 20//20 52//52
f 7//7 22//22 53//53
f 47//47 54//54 8//8
f 43//43 55//55 27//27
f 10//10 27//27 56//56
f 58//58 60//60 59//59
f 83//83 59//59 61//61
f 59//59 83//83 62//62
f 58//58 63//63 60//60
f 90//90 64//64 66//66
f 68//68 71//71 69//69
f 70//70 72//72 71//71
f 64//64 90//90 72//72
f 67//67 69//69 74//74
f 77//77 75//75 74//74
f 79//79 76//76 77//77
f 82//82 78//78 79//79
f 66//66 65//65 81//81
f 63//63 78//78 61//61
f 81//81 80//80 83//83
f 137//137 81//81 84//84
f 93//93 61//61 85//85
f 81//81 137//137 86//86
f 85//85 82//82 87//87
f 87//87 79//79 88//88
f 88//88 77//77 89//89
f 69//69 128//128 89//89
f 132//132 72//72 91//91
f 72//72 132//132 92//92
f 128//128 69//69 92//92
f 66//66 86//86 91//91
f 84//84 83//83 93//93
f 29//29 28//28 95//95
f 95//95 94//94 97//97
f 97//97 96//96 65//65
f 30//30 29//29 98//98
f 98//98 95//95 99//99
f 65//65 64//64 99//99
f 31//31 30//30 100//100
f 100//100 98//98 101//101
f 101//101 99//99 70//70
f 33//33 32//32 103//103
f 103//103 102//102 105//105
f 105//105 104//104 57//57
f 35//35 34//34 107//107
f 107//107 106//106 109//109
f 109//109 108//108 78//78
f 36//36 35//35 110//110
f 110//110 107//107 111//111
f 111//111 109//109 63//63
f 34//34 37//37 106//106
f 106//106 112//112 108//108
f 108//108 113//113 76//76
f 114//114 112//112 37//37
f 112//112 114//114 113//113
f 113//113 115//115 75//75
f 116//116 114//114 38//38
f 117//117 115//115 114//114
f 115//115 117//117 73//73
f 39//39 40//40 116//116
f 116//116 118//118 117//117
f 68//68 67//67 117//117
f 40//40 31//31 118//118
f 118//118 100//100 119//119
f 119//119 101//101 68//68
f 32//32 36//36 102//102
f 102//102 110//110 104//104
f 104//104 111//111 58//58
f 96//96 121//121 62//62
f 121//121 96//96 120//120
f 120//120 94//94 41//41
f 57//57 62//62 105//105
f 105//105 121//121 103//103
f 103//103 120//120 33//33
f 123//123 125//125 124//124
f 92//92 132//132 125//125
f 127//127 123//123 122//122
f 123//123 127//127 92//92
f 130//130 127//127 126//126
f 127//127 130//130 128//128
f 125//125 133//133 131//131
f 133//133 125//125 91//91
f 135//135 131//131 134//134
f 134//134 133//133 86//86
f 138//138 135//135 136//136
f 136//136 134//134 137//137
f 136//136 140//140 139//139
f 140//140 136//136 84//84
f 140//140 142//142 141//141
f 142//142 140//140 93//93
f 142//142 144//144 143//143
f 144//144 142//142 85//85
f 144//144 146//146 145//145
f 146//146 144//144 87//87
f 146//146 148//148 147//147
f 148//148 146//146 88//88
f 148//148 130//130 129//129
f 130//130 148//148 89//89
